<?xml version="1.0" encoding="UTF-8"?>
<svg version="1.1" xmlns="http://www.w3.org/2000/svg" width="512" height="512">
    <path d="M0 0 C0.93826027 2.81662956 1.1245463 5.39470241 1.12304783 8.34968185 C1.12503888 9.21804476 1.12702993 10.08640766 1.12908131 10.98108459 C1.12616847 11.93049745 1.12325563 12.87991031 1.12025452 13.85809326 C1.12153615 15.37617596 1.12153615 15.37617596 1.12284368 16.924927 C1.12449459 20.32594574 1.11898342 23.72691547 1.11352539 27.12792969 C1.11324341 29.56198628 1.11340147 31.99604295 1.1139679 34.43009949 C1.11419583 39.67550889 1.11135407 44.92090716 1.10573006 50.16631317 C1.09760396 57.75029509 1.0949987 65.33427099 1.09374207 72.91825679 C1.09155329 85.22268893 1.08489794 97.52711443 1.07543945 109.83154297 C1.06626082 121.78434211 1.05918219 133.73713945 1.05493164 145.68994141 C1.05453756 146.79504693 1.05453756 146.79504693 1.05413551 147.92247781 C1.05283047 151.61846086 1.05156677 155.31444393 1.05032361 159.010427 C1.03995644 189.67362274 1.02226854 220.33681045 1 251 C1.98265839 250.9800145 1.98265839 250.9800145 2.98516846 250.95962524 C9.79801822 250.82697642 16.61050186 250.73642696 23.42431641 250.67041016 C25.96776221 250.64021993 28.51110378 250.59926319 31.05419922 250.54736328 C34.70826919 250.47465256 38.36096416 250.44056469 42.015625 250.4140625 C43.15429016 250.38309479 44.29295532 250.35212708 45.46612549 250.32022095 C48.42986316 250.3189548 51.10313403 250.37436113 54 251 C58.22493724 255.34275321 58.5683432 259.42470252 58.50390625 265.2578125 C58.5180381 266.43426834 58.5180381 266.43426834 58.53245544 267.63449097 C58.56097916 270.13159472 58.56419125 272.62774719 58.5625 275.125 C58.59605723 297.95286771 63.0344577 314.72848265 78.86328125 331.9140625 C85.85371415 338.7383608 94.3700268 342.89982365 103.0703125 347.10546875 C103.71258789 347.42177246 104.35486328 347.73807617 105.01660156 348.06396484 C106.36847751 348.70196243 107.74242672 349.29469205 109.13183594 349.84619141 C114.01605376 351.91085266 116.18526648 353.94299981 118.24804688 358.85400391 C121.85084323 369.13601038 123.37526211 379.49350928 123.5 390.375 C123.51836914 391.2724292 123.53673828 392.1698584 123.55566406 393.09448242 C123.49618396 399.31669582 123.49618396 399.31669582 121.15625 402.5390625 C117.99262332 404.6825342 115.46741491 405.12492077 111.74213123 405.12304783 C110.43212327 405.1260344 110.43212327 405.1260344 109.09565049 405.12908131 C108.13554289 405.12616847 107.17543529 405.12325563 106.18623352 405.12025452 C104.6571818 405.12153615 104.6571818 405.12153615 103.09724015 405.12284368 C99.66547647 405.12449696 96.23376117 405.11897956 92.80200195 405.11352539 C90.34838868 405.11324346 87.89477533 405.11340137 85.44116211 405.1139679 C80.15044337 405.11419596 74.85973982 405.11135092 69.56902504 405.10573006 C61.91950895 405.09760849 54.26999883 405.09499916 46.62047889 405.09374207 C34.21011732 405.09155258 21.79976231 405.0848953 9.3894043 405.07543945 C-2.66723599 405.06626266 -14.7238745 405.05918313 -26.78051758 405.05493164 C-27.52349131 405.05466892 -28.26646503 405.05440619 -29.03195312 405.05413551 C-32.75917495 405.05283049 -36.48639679 405.05156677 -40.21361864 405.05032361 C-71.1424172 405.03995422 -102.0712076 405.02226445 -133 405 C-132.67 405.66 -132.34 406.32 -132 407 C-131.78726687 411.49492592 -131.81420585 415.99375964 -131.81469727 420.49316406 C-131.81252199 422.72741053 -131.79439529 424.96115416 -131.77539062 427.1953125 C-131.77245429 428.62499832 -131.7704711 430.05468647 -131.76953125 431.484375 C-131.76542236 432.78084961 -131.76131348 434.07732422 -131.75708008 435.41308594 C-132.07610174 440.12370528 -132.4335679 443.59008037 -136.04760742 446.84301758 C-140.14698807 448.44948123 -143.8693701 448.47884213 -148.23828125 448.51171875 C-149.55943184 448.53864555 -149.55943184 448.53864555 -150.90727234 448.56611633 C-153.7089668 448.6201191 -156.51049187 448.65408266 -159.3125 448.6875 C-161.21682039 448.72068195 -163.12111846 448.75517243 -165.02539062 448.79101562 C-169.68347134 448.87583978 -174.3415027 448.94269874 -179 449 C-179.45093018 449.99435059 -179.90186035 450.98870117 -180.36645508 452.01318359 C-183.47174126 458.80256507 -186.54509494 465.39279993 -190.6875 471.625 C-191.05166016 472.18316406 -191.41582031 472.74132812 -191.79101562 473.31640625 C-201.92089904 488.66471445 -219.03912629 500.30111543 -237.0625 504.3125 C-242.3325225 505.11613979 -247.61553826 505.23775476 -252.9375 505.3125 C-253.76709229 505.33030518 -254.59668457 505.34811035 -255.45141602 505.36645508 C-258.97846006 505.36176822 -261.35337139 505.34399432 -264.50390625 503.66796875 C-266.97841943 500.90917729 -267.12483586 498.29983185 -267.12304783 494.7577486 C-267.12503888 493.88789336 -267.12702993 493.01803811 -267.12908131 492.12182361 C-267.12616847 491.16560696 -267.12325563 490.2093903 -267.12025452 489.22419739 C-267.12110894 488.20891313 -267.12196337 487.19362887 -267.12284368 486.14757842 C-267.12449693 482.7296342 -267.11897961 479.31173856 -267.11352539 475.89379883 C-267.11324346 473.45003765 -267.11340137 471.00627639 -267.1139679 468.56251526 C-267.11419596 463.29307742 -267.11135095 458.02365483 -267.10573006 452.75422096 C-267.09760844 445.13547396 -267.09499916 437.51673295 -267.09374207 429.89798208 C-267.09155259 417.53753479 -267.08489533 405.1770941 -267.07543945 392.81665039 C-267.06626264 380.80851271 -267.05918312 368.80037681 -267.05493164 356.79223633 C-267.05466892 356.0522496 -267.05440619 355.31226286 -267.05413551 354.54985229 C-267.05283049 350.83761453 -267.05156677 347.12537676 -267.05032361 343.41313899 C-267.03995424 312.60875453 -267.0222645 281.80437827 -267 251 C-267.61145056 251.00276538 -268.22290112 251.00553076 -268.85288048 251.00837994 C-283.71635329 251.07457219 -298.57981192 251.12424758 -313.44339561 251.15543652 C-320.63126283 251.17091935 -327.81903178 251.19203572 -335.00683594 251.22631836 C-341.27019172 251.2561776 -347.53347637 251.2755647 -353.79690135 251.28226548 C-357.11477754 251.28618372 -360.43240218 251.29698231 -363.75022507 251.31719017 C-367.44998199 251.33883644 -371.14931147 251.34197226 -374.84912109 251.34057617 C-376.50744209 251.35675491 -376.50744209 251.35675491 -378.19926453 251.3732605 C-379.20329819 251.36913651 -380.20733185 251.36501251 -381.24179077 251.36076355 C-382.55534577 251.36491162 -382.55534577 251.36491162 -383.89543724 251.36914349 C-384.93719581 251.18641746 -384.93719581 251.18641746 -386 251 C-390.81844125 243.77233813 -388.94349912 229.99289756 -387.62939453 221.64599609 C-382.15085621 197.82205058 -363.55868549 174.34236968 -343.24609375 161.61328125 C-338.45945165 158.68249318 -333.70375508 155.79102914 -328.609375 153.42578125 C-325.69421086 152.21743457 -325.69421086 152.21743457 -325 149 C-324.90063007 147.50245359 -324.85449447 146.00103412 -324.84228516 144.50024414 C-324.83202301 143.59242691 -324.82176086 142.68460968 -324.81118774 141.74928284 C-324.80388641 140.77112106 -324.79658508 139.79295929 -324.7890625 138.78515625 C-324.76100051 136.71678887 -324.73233609 134.64842959 -324.703125 132.58007812 C-324.66181476 129.31681488 -324.62492912 126.05370399 -324.59863281 122.7902832 C-324.57106378 119.64242297 -324.52519963 116.49525194 -324.4765625 113.34765625 C-324.47330963 112.37151871 -324.47005676 111.39538116 -324.46670532 110.3896637 C-324.45013885 109.47869431 -324.43357239 108.56772491 -324.41650391 107.62915039 C-324.40841705 106.82989639 -324.4003302 106.0306424 -324.39199829 105.20716858 C-323.89797733 102.42555557 -322.92052696 101.04965447 -321 99 C-317.46760012 97.82253337 -314.29018099 97.86469453 -310.61592102 97.87974548 C-309.85790056 97.87889106 -309.0998801 97.87803663 -308.31888932 97.87715632 C-305.77156971 97.87550541 -303.22431553 97.88101654 -300.67700195 97.88647461 C-298.85392254 97.88675659 -297.03084302 97.88659853 -295.20776367 97.8860321 C-290.25147792 97.88574456 -285.29521624 97.89163441 -280.33893609 97.89860606 C-275.16192766 97.90484669 -269.98491871 97.90544396 -264.8079071 97.90663147 C-255.00132033 97.90974269 -245.19474467 97.91795326 -235.38816279 97.92798096 C-224.22506649 97.93914859 -213.06196966 97.94465419 -201.89886916 97.94967639 C-178.93257327 97.96013604 -155.96628726 97.97773144 -133 98 C-133.01047363 96.93563721 -133.02094727 95.87127441 -133.03173828 94.7746582 C-133.06802076 90.81440614 -133.09093045 86.8541687 -133.10986328 82.89379883 C-133.11990208 81.18185961 -133.13353595 79.46993745 -133.15087891 77.75805664 C-133.17522073 75.29308858 -133.18650438 72.82834785 -133.1953125 70.36328125 C-133.20563507 69.60163162 -133.21595764 68.83998199 -133.22659302 68.05525208 C-133.22745738 63.93337351 -132.95289588 60.66728487 -131 57 C-127.7927436 54.60893849 -124.56643416 54.70846178 -120.66015625 54.62109375 C-119.43232422 54.58693359 -118.20449219 54.55277344 -116.93945312 54.51757812 C-115.66005859 54.49115234 -114.38066406 54.46472656 -113.0625 54.4375 C-110.53246112 54.37741317 -108.00250401 54.31375093 -105.47265625 54.24609375 C-104.35125244 54.22216553 -103.22984863 54.1982373 -102.07446289 54.17358398 C-99.23125559 54.01305668 -96.72160621 53.8409895 -94 53 C-92.48913905 50.5211024 -91.33295743 48.26427254 -90.1875 45.625 C-79.85774551 23.55978238 -62.92041666 9.76408854 -40.5 1.15625 C-33.4435337 -1.17490405 -26.9293426 -2.35955952 -19.5 -2.6875 C-18.69691406 -2.73455078 -17.89382813 -2.78160156 -17.06640625 -2.83007812 C-3.50066964 -3.50066964 -3.50066964 -3.50066964 0 0 Z "
          fill="#F6B496" transform="translate(389,5)"/>
    <path d="M0 0 C22.11 0 44.22 0 67 0 C67.03738281 6.60644531 67.07476562 13.21289062 67.11328125 20.01953125 C67.14354829 24.19859409 67.17468785 28.37761367 67.20898438 32.55664062 C67.26336768 39.19341902 67.31447504 45.83011184 67.34643555 52.46704102 C67.37239738 57.81638957 67.41274905 63.16545181 67.46318626 68.51462364 C67.47990327 70.55797458 67.49138734 72.60137509 67.49761391 74.64478493 C67.50720253 77.50153422 67.53519854 80.35754297 67.56762695 83.21411133 C67.56619186 84.06359344 67.56475677 84.91307556 67.5632782 85.78829956 C67.50689175 90.04740205 67.50689175 90.04740205 69.36589622 93.71660995 C71.759463 95.59646594 73.61067339 95.38803221 76.6262207 95.40405273 C77.78205154 95.41673691 78.93788239 95.42942108 80.1287384 95.44248962 C81.38176254 95.43955399 82.63478668 95.43661835 83.92578125 95.43359375 C85.22009567 95.4388356 86.5144101 95.44407745 87.84794617 95.44947815 C90.59607643 95.458423 93.34391652 95.45597866 96.09204102 95.44604492 C99.57392036 95.43467248 103.05476767 95.45457498 106.53651142 95.48396206 C109.89548305 95.50702483 113.25423301 95.49983995 116.61328125 95.49609375 C117.84403885 95.50732773 119.07479645 95.51856171 120.34284973 95.53013611 C137.67908319 95.39352987 151.02265648 89.04463808 164.58984375 78.734375 C166.67953682 77.23060883 168.66350836 76.06253448 171 75 C171 74.34 171 73.68 171 73 C172.875 70.875 172.875 70.875 175 69 C175.66 69 176.32 69 177 69 C177.23074219 68.48695313 177.46148437 67.97390625 177.69921875 67.4453125 C179.8355842 63.42920208 182.51166065 59.74852354 185.10351562 56.015625 C191.03208785 47.29766403 194.76676192 38.6150194 197.25 28.375 C197.50523437 27.40949219 197.76046875 26.44398438 198.0234375 25.44921875 C199.50495532 19.48416017 200.25485459 13.71364844 200.57714844 7.59619141 C200.6192746 6.86221634 200.66140076 6.12824127 200.70480347 5.37202454 C200.80702181 3.58156366 200.90405164 1.79080782 201 0 C216.57685236 -0.14013875 232.15359048 -0.24595525 247.7309227 -0.31087303 C254.96373309 -0.34181635 262.19615189 -0.38400486 269.42871094 -0.45263672 C275.73237372 -0.51242551 282.03575295 -0.55114572 288.3396914 -0.56453097 C291.67818113 -0.57235647 295.01521744 -0.59389176 298.35356903 -0.63438034 C302.07963142 -0.67778383 305.80399994 -0.68394037 309.53027344 -0.68115234 C310.63798096 -0.702724 311.74568848 -0.72429565 312.88696289 -0.746521 C315.71797698 -0.72352038 318.24472269 -0.64929001 321 0 C325.19343487 4.37128735 325.56838059 8.42131764 325.50390625 14.2578125 C325.5180381 15.43426834 325.5180381 15.43426834 325.53245544 16.63449097 C325.56097916 19.13159472 325.56419125 21.62774719 325.5625 24.125 C325.59605723 46.95286771 330.0344577 63.72848265 345.86328125 80.9140625 C352.85371415 87.7383608 361.3700268 91.89982365 370.0703125 96.10546875 C370.71258789 96.42177246 371.35486328 96.73807617 372.01660156 97.06396484 C373.36847751 97.70196243 374.74242672 98.29469205 376.13183594 98.84619141 C381.01605376 100.91085266 383.18526648 102.94299981 385.24804688 107.85400391 C388.85084323 118.13601038 390.37526211 128.49350928 390.5 139.375 C390.52755371 140.7211438 390.52755371 140.7211438 390.55566406 142.09448242 C390.49618396 148.31669582 390.49618396 148.31669582 388.15625 151.5390625 C384.99262332 153.6825342 382.46741491 154.12492077 378.74213123 154.12304783 C377.43212327 154.1260344 377.43212327 154.1260344 376.09565049 154.12908131 C375.13554289 154.12616847 374.17543529 154.12325563 373.18623352 154.12025452 C371.6571818 154.12153615 371.6571818 154.12153615 370.09724015 154.12284368 C366.66547647 154.12449696 363.23376117 154.11897956 359.80200195 154.11352539 C357.34838868 154.11324346 354.89477533 154.11340137 352.44116211 154.1139679 C347.15044337 154.11419596 341.85973982 154.11135092 336.56902504 154.10573006 C328.91950895 154.09760849 321.26999883 154.09499916 313.62047889 154.09374207 C301.21011732 154.09155258 288.79976231 154.0848953 276.3894043 154.07543945 C264.33276401 154.06626266 252.2761255 154.05918313 240.21948242 154.05493164 C239.47650869 154.05466892 238.73353497 154.05440619 237.96804688 154.05413551 C234.24082505 154.05283049 230.51360321 154.05156677 226.78638136 154.05032361 C195.8575828 154.03995422 164.9287924 154.02226445 134 154 C134.33 154.66 134.66 155.32 135 156 C135.21273313 160.49492592 135.18579415 164.99375964 135.18530273 169.49316406 C135.18747801 171.72741053 135.20560471 173.96115416 135.22460938 176.1953125 C135.22754571 177.62499832 135.2295289 179.05468647 135.23046875 180.484375 C135.23457764 181.78084961 135.23868652 183.07732422 135.24291992 184.41308594 C134.92389826 189.12370528 134.5664321 192.59008037 130.95239258 195.84301758 C126.85301193 197.44948123 123.1306299 197.47884213 118.76171875 197.51171875 C117.88095169 197.52966995 117.00018463 197.54762115 116.09272766 197.56611633 C113.2910332 197.6201191 110.48950813 197.65408266 107.6875 197.6875 C105.78317961 197.72068195 103.87888154 197.75517243 101.97460938 197.79101562 C97.31652866 197.87583978 92.6584973 197.94269874 88 198 C87.32360474 199.49152588 87.32360474 199.49152588 86.63354492 201.01318359 C83.52825874 207.80256507 80.45490506 214.39279993 76.3125 220.625 C75.94833984 221.18316406 75.58417969 221.74132812 75.20898438 222.31640625 C65.07910096 237.66471445 47.96087371 249.30111543 29.9375 253.3125 C24.6674775 254.11613979 19.38446174 254.23775476 14.0625 254.3125 C13.23290771 254.33030518 12.40331543 254.34811035 11.54858398 254.36645508 C8.02153994 254.36176822 5.64662861 254.34399432 2.49609375 252.66796875 C0.02158057 249.90917729 -0.12483586 247.29983185 -0.12304783 243.7577486 C-0.12503888 242.88789336 -0.12702993 242.01803811 -0.12908131 241.12182361 C-0.12616847 240.16560696 -0.12325563 239.2093903 -0.12025452 238.22419739 C-0.12110894 237.20891313 -0.12196337 236.19362887 -0.12284368 235.14757842 C-0.12449693 231.7296342 -0.11897961 228.31173856 -0.11352539 224.89379883 C-0.11324346 222.45003765 -0.11340137 220.00627639 -0.1139679 217.56251526 C-0.11419596 212.29307742 -0.11135095 207.02365483 -0.10573006 201.75422096 C-0.09760844 194.13547396 -0.09499916 186.51673295 -0.09374207 178.89798208 C-0.09155259 166.53753479 -0.08489533 154.1770941 -0.07543945 141.81665039 C-0.06626264 129.80851271 -0.05918312 117.80037681 -0.05493164 105.79223633 C-0.05453756 104.68225623 -0.05453756 104.68225623 -0.05413551 103.54985229 C-0.05283049 99.83761453 -0.05156677 96.12537676 -0.05032361 92.41313899 C-0.03995424 61.60875356 -0.02151768 30.80438023 0 0 Z "
          fill="#6798C8" transform="translate(122,256)"/>
    <path d="M0 0 C1.07680023 -0.0112793 2.15360046 -0.02255859 3.26303101 -0.03417969 C4.44442657 -0.02608276 5.62582214 -0.01798584 6.84301758 -0.00964355 C8.08709381 -0.01665283 9.33117004 -0.02366211 10.61294556 -0.03088379 C14.02642418 -0.04548893 17.43893505 -0.04204349 20.85235977 -0.02936745 C24.42241987 -0.01924841 27.9924383 -0.02863006 31.5625 -0.03491211 C37.55809973 -0.04219176 43.55350244 -0.03259266 49.54907227 -0.0135498 C56.48326626 0.00821977 63.41698985 0.00116861 70.35117245 -0.02085543 C76.30201466 -0.03900056 82.25271516 -0.04157217 88.20357609 -0.03110075 C91.75895462 -0.02486084 95.31411195 -0.02404355 98.86947632 -0.0372467 C102.83219729 -0.05093437 106.79439029 -0.03196983 110.75708008 -0.00964355 C111.93847565 -0.01774048 113.11987122 -0.0258374 114.33706665 -0.03417969 C115.952267 -0.01726074 115.952267 -0.01726074 117.60009766 0 C118.53735184 0.0015081 119.47460602 0.0030162 120.44026184 0.00457001 C122.80004883 0.50793457 122.80004883 0.50793457 124.59997463 2.26582718 C125.91156074 4.7162731 126.18279674 6.13078606 126.20118713 8.8895874 C126.21398209 9.76071671 126.22677704 10.63184601 126.23995972 11.52937317 C126.23860016 12.47781601 126.2372406 13.42625885 126.23583984 14.40344238 C126.24591568 15.40910751 126.25599152 16.41477264 126.26637268 17.45091248 C126.29493748 20.78774076 126.30073747 24.12411643 126.30395508 27.46105957 C126.31360409 29.79681581 126.32369716 32.13257026 126.33421326 34.46832275 C126.35220564 39.38114607 126.35773246 44.29381109 126.35595703 49.20666504 C126.35565517 55.43515106 126.39628531 61.66258768 126.44827366 67.89082718 C126.48204122 72.72831651 126.48770194 77.56556511 126.48612785 82.4031601 C126.48961983 84.6943797 126.50261144 86.9856089 126.52612495 89.27671051 C126.79947134 118.71198779 119.66176557 144.81507061 99.62817383 166.90246582 C97.80004883 168.50793457 97.80004883 168.50793457 95.80004883 168.50793457 C95.80004883 169.16793457 95.80004883 169.82793457 95.80004883 170.50793457 C79.69399527 184.17123667 63.28585209 191.80629173 42.03442383 191.84387207 C40.0679892 191.85385727 40.0679892 191.85385727 38.06182861 191.86404419 C35.30168352 191.87595307 32.54166307 191.87973103 29.78149414 191.87854004 C26.24838911 191.87833577 22.71607868 191.90577604 19.18316269 191.94008446 C15.80023702 191.96765909 12.41746049 191.96650019 9.03442383 191.96887207 C7.13439606 191.99042862 7.13439606 191.99042862 5.19598389 192.01242065 C4.02086243 192.0062674 2.84574097 192.00011414 1.63500977 191.99377441 C0.6021283 191.99662445 -0.43075317 191.99947449 -1.49493408 192.00241089 C-5.03958565 191.35444964 -6.01654201 190.35896798 -8.19995117 187.50793457 C-8.59103842 184.89923679 -8.73703526 182.71250537 -8.70115662 180.10644531 C-8.70945821 178.98461704 -8.70945821 178.98461704 -8.71792752 177.84012556 C-8.73154742 175.33257343 -8.71655826 172.82601436 -8.70166016 170.31848145 C-8.70544286 168.52144447 -8.7109425 166.7244104 -8.71803284 164.92738342 C-8.73201109 160.04515236 -8.72080105 155.16327277 -8.70432162 150.28106117 C-8.69048619 145.17532693 -8.69692948 140.0696134 -8.70045471 134.96386719 C-8.70315803 126.38914312 -8.68967079 117.81455895 -8.66650391 109.23986816 C-8.63989343 99.32186407 -8.63814663 89.4040939 -8.64989227 79.48606634 C-8.66066602 69.95101264 -8.65448614 60.41604367 -8.64033699 50.8809967 C-8.63457369 46.82046001 -8.63466257 42.75998525 -8.63940239 38.69944763 C-8.64416959 33.91908192 -8.63408115 29.13897282 -8.61244774 24.35865593 C-8.60687619 22.60265404 -8.60641794 20.84662751 -8.6114006 19.09062386 C-8.61734245 16.69660435 -8.60487009 14.30337232 -8.58763123 11.90942383 C-8.59364127 11.21176013 -8.59965132 10.51409644 -8.60584348 9.79529142 C-8.56735608 6.86330258 -8.30520285 4.72127989 -7.00071812 2.0770874 C-4.58411012 -0.02869719 -3.18572678 0.00512604 0 0 Z "
          fill="#FAE4D6" transform="translate(197.199951171875,160.4920654296875)"/>
    <path d="M0 0 C-0.33 50.49 -0.66 100.98 -1 153 C-30.390625 153.0928125 -30.390625 153.0928125 -60.375 153.1875 C-66.56942871 153.21481201 -72.76385742 153.24212402 -79.14599609 153.27026367 C-86.69067383 153.28381348 -86.69067383 153.28381348 -90.21890259 153.28633118 C-92.69133115 153.29094807 -95.16375281 153.30152002 -97.63613892 153.31672668 C-101.37391965 153.33857365 -105.11128642 153.34172181 -108.84912109 153.34057617 C-109.95676001 153.3513705 -111.06439892 153.36216482 -112.20560265 153.37328625 C-113.20754473 153.36915376 -114.20948681 153.36502127 -115.24179077 153.36076355 C-116.55534577 153.36491162 -116.55534577 153.36491162 -117.89543724 153.36914349 C-118.93719581 153.18641746 -118.93719581 153.18641746 -120 153 C-124.81844125 145.77233813 -122.94349912 131.99289756 -121.62939453 123.64599609 C-116.15085621 99.82205058 -97.55868549 76.34236968 -77.24609375 63.61328125 C-72.45945165 60.68249318 -67.70375508 57.79102914 -62.609375 55.42578125 C-59.69421086 54.21743457 -59.69421086 54.21743457 -59 51 C-58.90063007 49.50245359 -58.85449447 48.00103412 -58.84228516 46.50024414 C-58.83202301 45.59242691 -58.82176086 44.68460968 -58.81118774 43.74928284 C-58.80388641 42.77112106 -58.79658508 41.79295929 -58.7890625 40.78515625 C-58.76100051 38.71678887 -58.73233609 36.64842959 -58.703125 34.58007812 C-58.66181476 31.31681488 -58.62492912 28.05370399 -58.59863281 24.7902832 C-58.57106378 21.64242297 -58.52519963 18.49525194 -58.4765625 15.34765625 C-58.47330963 14.37151871 -58.47005676 13.39538116 -58.46670532 12.3896637 C-58.45013885 11.47869431 -58.43357239 10.56772491 -58.41650391 9.62915039 C-58.40841705 8.82989639 -58.4003302 8.0306424 -58.39199829 7.20716858 C-57.89797733 4.42555557 -56.92052696 3.04965447 -55 1 C-37.60459831 -4.79846723 -18.33636339 0 0 0 Z "
          fill="#FAE5D6" transform="translate(123,103)"/>
    <path d="M0 0 C17.82 0 35.64 0 54 0 C57.80454809 5.70682213 58.57390637 7.92110021 58.50390625 14.2578125 C58.51332748 15.04211639 58.52274872 15.82642029 58.53245544 16.63449097 C58.56097916 19.13159472 58.56419125 21.62774719 58.5625 24.125 C58.59605723 46.95286771 63.0344577 63.72848265 78.86328125 80.9140625 C85.85371415 87.7383608 94.3700268 91.89982365 103.0703125 96.10546875 C103.71258789 96.42177246 104.35486328 96.73807617 105.01660156 97.06396484 C106.36847751 97.70196243 107.74242672 98.29469205 109.13183594 98.84619141 C114.01605376 100.91085266 116.18526648 102.94299981 118.24804688 107.85400391 C121.85084323 118.13601038 123.37526211 128.49350928 123.5 139.375 C123.52755371 140.7211438 123.52755371 140.7211438 123.55566406 142.09448242 C123.49618396 148.31669582 123.49618396 148.31669582 121.15625 151.5390625 C117.81496445 153.80290452 115.16559028 154.12450334 111.23542786 154.12025452 C110.25729787 154.12163201 109.27916788 154.12300951 108.27139759 154.12442875 C107.19546187 154.12083064 106.11952616 154.11723253 105.01098633 154.11352539 C103.86081119 154.11364593 102.71063604 154.11376646 101.52560711 154.11389065 C97.79439563 154.11314295 94.06323382 154.10552118 90.33203125 154.09765625 C88.03169784 154.09618639 85.73136409 154.09516595 83.43103027 154.09460449 C74.89151509 154.08935674 66.35200706 154.07539559 57.8125 154.0625 C38.734375 154.041875 19.65625 154.02125 0 154 C0 103.18 0 52.36 0 0 Z "
          fill="#B3E2F4" transform="translate(389,256)"/>
    <path d="M0 0 C44.22 0 88.44 0 134 0 C134 18.75133985 134 18.75133985 131.5 28.0625 C131.23155273 29.08907715 130.96310547 30.1156543 130.68652344 31.17333984 C126.54861457 46.13618778 117.83025728 62.61060739 106 73 C105.34 73 104.68 73 104 73 C104 73.66 104 74.32 104 75 C87.89394645 88.6633021 71.48580326 96.29835716 50.234375 96.3359375 C48.26794037 96.3459227 48.26794037 96.3459227 46.26177979 96.35610962 C43.50163469 96.3680185 40.74161425 96.37179646 37.98144531 96.37060547 C34.44834028 96.3704012 30.91602985 96.39784147 27.38311386 96.43214989 C24.00018819 96.45972452 20.61741166 96.45856562 17.234375 96.4609375 C15.33434723 96.48249405 15.33434723 96.48249405 13.39593506 96.50448608 C12.2208136 96.49833282 11.04569214 96.49217957 9.83496094 96.48583984 C8.80207947 96.48868988 7.769198 96.49153992 6.70501709 96.49447632 C4 96 4 96 1.66369629 94.52584839 C-0.80521246 90.7775145 -0.52877547 87.49775135 -0.45410156 83.10058594 C-0.45482477 81.73198111 -0.45482477 81.73198111 -0.45556259 80.33572769 C-0.45257907 77.38487875 -0.42212938 74.43504292 -0.390625 71.484375 C-0.3847432 69.66162604 -0.38066289 67.83887035 -0.37841797 66.01611328 C-0.35745407 59.26063909 -0.30160909 52.50530958 -0.25 45.75 C-0.1675 30.6525 -0.085 15.555 0 0 Z "
          fill="#B3E2F4" transform="translate(189,256)"/>
    <path d="M0 0 C0.90251587 2.73250247 1.12404403 5.22271673 1.12025452 8.08758545 C1.12232076 9.29235598 1.12232076 9.29235598 1.12442875 10.5214653 C1.12083064 11.3970673 1.11723253 12.2726693 1.11352539 13.17480469 C1.11364593 14.11694447 1.11376646 15.05908424 1.11389065 16.02977371 C1.11314471 19.07716489 1.10553097 22.12449478 1.09765625 25.171875 C1.09618584 27.05419892 1.09516574 28.93652325 1.09460449 30.81884766 C1.08936306 37.79590468 1.07540185 44.77295294 1.0625 51.75 C1.041875 67.3425 1.02125 82.935 1 99 C-43.22 99 -87.44 99 -133 99 C-133 62 -133 62 -131 57 C-127.7927436 54.60893849 -124.56643416 54.70846178 -120.66015625 54.62109375 C-119.43232422 54.58693359 -118.20449219 54.55277344 -116.93945312 54.51757812 C-115.66005859 54.49115234 -114.38066406 54.46472656 -113.0625 54.4375 C-110.53246112 54.37741317 -108.00250401 54.31375093 -105.47265625 54.24609375 C-104.35125244 54.22216553 -103.22984863 54.1982373 -102.07446289 54.17358398 C-99.23125559 54.01305668 -96.72160621 53.8409895 -94 53 C-92.48913905 50.5211024 -91.33295743 48.26427254 -90.1875 45.625 C-79.85774551 23.55978238 -62.92041666 9.76408854 -40.5 1.15625 C-33.4435337 -1.17490405 -26.9293426 -2.35955952 -19.5 -2.6875 C-18.69691406 -2.73455078 -17.89382813 -2.78160156 -17.06640625 -2.83007812 C-3.50066964 -3.50066964 -3.50066964 -3.50066964 0 0 Z "
          fill="#FAE4D7" transform="translate(389,5)"/>
    <path d="M0 0 C44.22 0 88.44 0 134 0 C136.22664944 4.45329887 135.18584386 10.53862006 135.18530273 15.49316406 C135.18747801 17.72741053 135.20560471 19.96115416 135.22460938 22.1953125 C135.22754571 23.62499832 135.2295289 25.05468647 135.23046875 26.484375 C135.23457764 27.78084961 135.23868652 29.07732422 135.24291992 30.41308594 C134.92389826 35.12370528 134.5664321 38.59008037 130.95239258 41.84301758 C126.85301193 43.44948123 123.1306299 43.47884213 118.76171875 43.51171875 C117.88095169 43.52966995 117.00018463 43.54762115 116.09272766 43.56611633 C113.2910332 43.6201191 110.48950813 43.65408266 107.6875 43.6875 C105.78317961 43.72068195 103.87888154 43.75517243 101.97460938 43.79101562 C97.31652866 43.87583978 92.6584973 43.94269874 88 44 C87.54906982 44.99435059 87.09813965 45.98870117 86.63354492 47.01318359 C83.52825874 53.80256507 80.45490506 60.39279993 76.3125 66.625 C75.94833984 67.18316406 75.58417969 67.74132812 75.20898438 68.31640625 C65.07910096 83.66471445 47.96087371 95.30111543 29.9375 99.3125 C24.6674775 100.11613979 19.38446174 100.23775476 14.0625 100.3125 C12.81811157 100.33920776 12.81811157 100.33920776 11.54858398 100.36645508 C8.02153994 100.36176822 5.64662861 100.34399432 2.49609375 98.66796875 C-0.9539811 94.82154065 -0.13357911 89.87844361 -0.11352539 85.03051758 C-0.11364593 84.09841052 -0.11376646 83.16630346 -0.11389065 82.20595074 C-0.11314361 79.18545339 -0.10552482 76.16501757 -0.09765625 73.14453125 C-0.09618619 71.28104685 -0.09516587 69.41756204 -0.09460449 67.55407715 C-0.08935909 60.64021181 -0.07539792 53.7263553 -0.0625 46.8125 C-0.041875 31.364375 -0.02125 15.91625 0 0 Z "
          fill="#B3E3F4" transform="translate(122,410)"/>
    <path d="M0 0 C0.92651021 -0.00282234 1.85302042 -0.00564468 2.8076067 -0.00855255 C4.35234936 -0.00551243 4.35234936 -0.00551243 5.92829895 -0.00241089 C7.01308627 -0.00414055 8.09787359 -0.00587021 9.21553326 -0.00765228 C12.88127794 -0.01205781 16.54697736 -0.00903648 20.21272278 -0.00582886 C22.82918817 -0.00684556 25.44565345 -0.00818563 28.06211853 -0.00982666 C34.45085616 -0.01272108 40.83957711 -0.00935792 47.22831225 -0.0035814 C52.41894749 0.00106973 57.60957957 0.0034652 62.80021667 0.00466919 C97.66621351 0.01430042 132.53109167 0.11795792 167.39631653 0.35354614 C168.11734291 0.35839256 168.83836928 0.36323897 169.58124495 0.36823225 C200.6319147 0.57798646 231.68202278 0.86244493 262.73225403 1.12698364 C262.73225403 51.28698364 262.73225403 101.44698364 262.73225403 153.12698364 C240.62225403 153.12698364 218.51225403 153.12698364 195.73225403 153.12698364 C195.40225403 122.76698364 195.07225403 92.40698364 194.73225403 61.12698364 C195.39225403 60.79698364 196.05225403 60.46698364 196.73225403 60.12698364 C196.73225403 90.15698364 196.73225403 120.18698364 196.73225403 151.12698364 C217.85225403 151.12698364 238.97225403 151.12698364 260.73225403 151.12698364 C260.73225403 102.94698364 260.73225403 54.76698364 260.73225403 5.12698364 C260.07225403 5.12698364 259.41225403 5.12698364 258.73225403 5.12698364 C258.73225403 4.46698364 258.73225403 3.80698364 258.73225403 3.12698364 C172.27225403 3.12698364 85.81225403 3.12698364 -3.26774597 3.12698364 C-3.26774597 52.62698364 -3.26774597 102.12698364 -3.26774597 153.12698364 C-3.92774597 153.12698364 -4.58774597 153.12698364 -5.26774597 153.12698364 C-5.29107345 133.32591804 -5.3087244 113.52485521 -5.31955814 93.72377872 C-5.32472142 84.5304576 -5.33176472 75.337145 -5.34318542 66.14382935 C-5.35313129 58.13391328 -5.35959917 50.12400339 -5.36183447 42.11408132 C-5.36314174 37.87021111 -5.36622863 33.62635855 -5.37347603 29.38249397 C-5.38023471 25.39269295 -5.38236325 21.40291694 -5.38085365 17.41311073 C-5.38113005 15.94448969 -5.38313607 14.47586785 -5.38695145 13.00725174 C-5.39188625 11.01075589 -5.3901441 9.01424677 -5.38800049 7.01774597 C-5.38892228 5.8977675 -5.38984407 4.77778902 -5.3907938 3.6238718 C-5.18659954 -0.51964088 -3.72186703 0.00174137 0 0 Z "
          fill="#ECBAA5" transform="translate(127.26774597167969,102.87301635742188)"/>
    <path d="M0 0 C21.78 0 43.56 0 66 0 C66 50.82 66 101.64 66 154 C-8.7187829 154.07991314 -8.7187829 154.07991314 -28.8203125 154.06640625 C-29.57064208 154.06593143 -30.32097165 154.0654566 -31.09403849 154.06496739 C-67.33472992 154.04043398 -103.5731912 153.80379254 -139.8125 153.5 C-140.52668642 153.49402628 -141.24087283 153.48805257 -141.97670126 153.48189783 C-159.98455698 153.33108247 -177.99232544 153.17115656 -196 153 C-196 152.67 -196 152.34 -196 152 C-109.87 152 -23.74 152 65 152 C65 103.16 65 54.32 65 4 C64.34 4 63.68 4 63 4 C62.34 3.34 61.68 2.68 61 2 C58.32895651 1.70667329 58.32895651 1.70667329 55.17333984 1.77294922 C53.95222504 1.77310028 52.73111023 1.77325134 51.47299194 1.77340698 C50.13563882 1.78362097 48.79828735 1.79405298 47.4609375 1.8046875 C46.09616299 1.8084172 44.73138581 1.81126437 43.36660767 1.81326294 C39.77279277 1.82090286 36.17913927 1.84055428 32.58538818 1.8626709 C28.91892683 1.88312168 25.25243943 1.892263 21.5859375 1.90234375 C14.39055138 1.92379997 7.1952983 1.95794008 0 2 C0 1.34 0 0.68 0 0 Z "
          fill="#6891B5" transform="translate(323,256)"/>
    <path d="M0 0 C22.11 0 44.22 0 67 0 C67 0.66 67 1.32 67 2 C46.21 2 25.42 2 4 2 C4 2.66 4 3.32 4 4 C3.34 4 2.68 4 2 4 C1.67 53.17 1.34 102.34 1 153 C44.89 153 88.78 153 134 153 C134 153.33 134 153.66 134 154 C89.78 154 45.56 154 0 154 C0 103.18 0 52.36 0 0 Z "
          fill="#80A4C7" transform="translate(122,256)"/>
    <path d="M0 0 C0.66 0 1.32 0 2 0 C2.33 12.54 2.66 25.08 3 38 C3.33 38 3.66 38 4 38 C4.02684679 40.64590014 4.04676357 43.29153096 4.0625 45.9375 C4.07087891 46.69224609 4.07925781 47.44699219 4.08789062 48.22460938 C4.09652441 50.14994313 4.05224333 52.07535581 4 54 C3.505 54.495 3.505 54.495 3 55 C2.91209025 57.29151417 2.89305962 59.58572524 2.90234375 61.87890625 C2.9037587 62.5655687 2.90517365 63.25223114 2.90663147 63.95970154 C2.91224521 66.16067801 2.92479993 68.36155409 2.9375 70.5625 C2.94251324 72.05143083 2.94707645 73.54036324 2.95117188 75.02929688 C2.96221907 78.68623075 2.97949287 82.34310558 3 86 C3.33 86 3.66 86 4 86 C4 89.3 4 92.6 4 96 C9.94 96 15.88 96 22 96 C22.66 97.32 23.32 98.64 24 100 C20.91684615 100.08733513 17.83401173 100.14050127 14.75 100.1875 C13.87730469 100.21263672 13.00460938 100.23777344 12.10546875 100.26367188 C5.64930246 100.33759744 5.64930246 100.33759744 2.453125 98.67578125 C-0.92390856 94.78129899 -0.13360406 89.8790935 -0.11352539 85.03051758 C-0.11367142 84.11324387 -0.11381744 83.19597015 -0.1139679 82.25090027 C-0.11327057 79.21541997 -0.10548656 76.18000084 -0.09765625 73.14453125 C-0.09579143 71.04131606 -0.09436783 68.93810043 -0.09336853 66.83488464 C-0.08954839 61.29630334 -0.07972237 55.7577482 -0.06866455 50.21917725 C-0.05843964 44.56864781 -0.05386859 38.91811415 -0.04882812 33.26757812 C-0.03809968 22.17837391 -0.02102926 11.08918913 0 0 Z "
          fill="#BEE0EE" transform="translate(122,410)"/>
    <path d="M0 0 C21.78 0 43.56 0 66 0 C65.67 1.32 65.34 2.64 65 4 C64.34 4 63.68 4 63 4 C62.34 3.34 61.68 2.68 61 2 C58.32895651 1.70667329 58.32895651 1.70667329 55.17333984 1.77294922 C53.95222504 1.77310028 52.73111023 1.77325134 51.47299194 1.77340698 C50.13563882 1.78362097 48.79828735 1.79405298 47.4609375 1.8046875 C46.09616299 1.8084172 44.73138581 1.81126437 43.36660767 1.81326294 C39.77279277 1.82090286 36.17913927 1.84055428 32.58538818 1.8626709 C28.91892683 1.88312168 25.25243943 1.892263 21.5859375 1.90234375 C14.39055138 1.92379997 7.1952983 1.95794008 0 2 C0 1.34 0 0.68 0 0 Z "
          fill="#7896B8" transform="translate(323,256)"/>
    <path d="M0 0 C3.52771157 1.26997617 6.13201847 2.74550246 9.0625 5.0625 C14.99821362 9.37856005 21.56447589 12.08798001 28.30688477 14.89086914 C29.5800354 15.43215454 29.5800354 15.43215454 30.87890625 15.984375 C31.6479126 16.30116211 32.41691895 16.61794922 33.20922852 16.94433594 C35 18 35 18 36 21 C35.34 20.855625 34.68 20.71125 34 20.5625 C30.34400449 19.87700084 26.69377805 19.43824485 23 19 C22.67 17.68 22.34 16.36 22 15 C21.34 15 20.68 15 20 15 C20 14.34 20 13.68 20 13 C17.69 13 15.38 13 13 13 C12.67 11.68 12.34 10.36 12 9 C10.02 9 8.04 9 6 9 C5.87625 8.071875 5.87625 8.071875 5.75 7.125 C5.1875 4.85416667 5.1875 4.85416667 3.125 3.75 C0.90408309 2.83358994 0.90408309 2.83358994 -2 3 C-1.34 2.01 -0.68 1.02 0 0 Z "
          fill="#BBE1EC" transform="translate(468,339)"/>
    <path d="M0 0 C2.82768624 2.41443933 2.98297087 2.81989806 3.36076355 6.81547546 C3.36947531 8.4416715 3.36145228 10.06800643 3.34057617 11.6940918 C3.34101425 12.5821048 3.34145233 13.4701178 3.34190369 14.38504028 C3.3398119 17.32332261 3.3164624 20.26103597 3.29296875 23.19921875 C3.28737419 25.23517037 3.28310343 27.27112603 3.28010559 29.30708313 C3.26864586 34.66821423 3.23916887 40.02910187 3.20599365 45.39013672 C3.17531714 50.85966702 3.16160542 56.32923661 3.14648438 61.79882812 C3.11430033 72.5326591 3.06309027 83.26630932 3 94 C2.67 94 2.34 94 2 94 C2 64.96 2 35.92 2 6 C1.34 6 0.68 6 0 6 C0 4.02 0 2.04 0 0 Z "
          fill="#FBD2BA" transform="translate(320,162)"/>
    <path d="M0 0 C11.88 0 23.76 0 36 0 C35.67 0.66 35.34 1.32 35 2 C31.82923837 3.05692054 29.55990104 3.12918539 26.23046875 3.1328125 C24.52600586 3.13474609 24.52600586 3.13474609 22.78710938 3.13671875 C21.59923828 3.13285156 20.41136719 3.12898438 19.1875 3.125 C18.01123047 3.12886719 16.83496094 3.13273437 15.62304688 3.13671875 C14.48287109 3.13542969 13.34269531 3.13414062 12.16796875 3.1328125 C11.12922607 3.13168457 10.0904834 3.13055664 9.02026367 3.12939453 C5.94093021 2.99746932 3.02649033 2.56918027 0 2 C0 1.34 0 0.68 0 0 Z "
          fill="#BBDEEB" transform="translate(218,450)"/>
    <path d="M0 0 C1 3 1 3 -0.21484375 5.69921875 C-0.78332031 6.68535156 -1.35179687 7.67148437 -1.9375 8.6875 C-2.50339844 9.68136719 -3.06929687 10.67523438 -3.65234375 11.69921875 C-4.31943359 12.83810547 -4.31943359 12.83810547 -5 14 C-5.33 14 -5.66 14 -6 14 C-6.62303433 9.01572537 -4.63388318 5.11424088 -2 1 C-1.34 0.67 -0.68 0.34 0 0 Z "
          fill="#B9E0EC" transform="translate(206,458)"/>
    <path d="M0 0 C-0.33 1.32 -0.66 2.64 -1 4 C-4.31070838 5.00109515 -7.30084769 5.10356134 -10.75 5.0625 C-11.73484375 5.05347656 -12.7196875 5.04445313 -13.734375 5.03515625 C-14.48203125 5.02355469 -15.2296875 5.01195312 -16 5 C-16 4.67 -16 4.34 -16 4 C-13.70922959 3.33011414 -11.41748541 2.66396838 -9.125 2 C-8.47402344 1.80921875 -7.82304687 1.6184375 -7.15234375 1.421875 C-2.2265625 0 -2.2265625 0 0 0 Z "
          fill="#72A1C7" transform="translate(269,347)"/>
    <path d="M0 0 C0.99 1.32 1.98 2.64 3 4 C1.02 6.64 -0.96 9.28 -3 12 C-3.33 11.01 -3.66 10.02 -4 9 C-3.04504326 7.30712215 -2.0409066 5.64142963 -1 4 C-0.30420546 1.80869466 -0.30420546 1.80869466 0 0 Z "
          fill="#BADCEB" transform="translate(196,472)"/>
    <path d="M0 0 C1.98 0 3.96 0 6 0 C6 0.66 6 1.32 6 2 C3.1875 3.5625 3.1875 3.5625 0 5 C-0.99 4.67 -1.98 4.34 -3 4 C-2.34 3.67 -1.68 3.34 -1 3 C-0.67 2.01 -0.34 1.02 0 0 Z "
          fill="#B9DFE9" transform="translate(160,502)"/>
    <path d="M0 0 C0.33 0 0.66 0 1 0 C1 2.97 1 5.94 1 9 C0.01 9.495 0.01 9.495 -1 10 C-2.23076923 4.58461538 -2.23076923 4.58461538 -1.0625 1.625 C-0.5365625 0.820625 -0.5365625 0.820625 0 0 Z "
          fill="#70A0C5" transform="translate(319,287)"/>
    <path d="M0 0 C0.99 0.33 1.98 0.66 3 1 C2.67 3.31 2.34 5.62 2 8 C1.01 7.34 0.02 6.68 -1 6 C-0.67 4.02 -0.34 2.04 0 0 Z "
          fill="#AADCF6" transform="translate(315,288)"/>
    <path d="M0 0 C0.66 0.33 1.32 0.66 2 1 C1.67 2.32 1.34 3.64 1 5 C-0.32 5 -1.64 5 -3 5 C-1.125 1.125 -1.125 1.125 0 0 Z "
          fill="#F7E9E0" transform="translate(39,171)"/>
</svg>
